<svg width="20" height="20" viewBox="0 0 20 20" fill="currentColor" xmlns="http://www.w3.org/2000/svg">
<path d="M6.5 10C6.63261 10 6.75979 9.94732 6.85355 9.85355C6.94732 9.75979 7 9.63261 7 9.5C7 9.36739 6.94732 9.24021 6.85355 9.14645C6.75979 9.05268 6.63261 9 6.5 9C6.36739 9 6.24021 9.05268 6.14645 9.14645C6.05268 9.24021 6 9.36739 6 9.5C6 9.63261 6.05268 9.75979 6.14645 9.85355C6.24021 9.94732 6.36739 10 6.5 10ZM7 13.5C7 13.6326 6.94732 13.7598 6.85355 13.8536C6.75979 13.9473 6.63261 14 6.5 14C6.36739 14 6.24021 13.9473 6.14645 13.8536C6.05268 13.7598 6 13.6326 6 13.5C6 13.3674 6.05268 13.2402 6.14645 13.1464C6.24021 13.0527 6.36739 13 6.5 13C6.63261 13 6.75979 13.0527 6.85355 13.1464C6.94732 13.2402 7 13.3674 7 13.5ZM3 6C3 5.20435 3.31607 4.44129 3.87868 3.87868C4.44129 3.31607 5.20435 3 6 3H14C14.7956 3 15.5587 3.31607 16.1213 3.87868C16.6839 4.44129 17 5.20435 17 6V14C17 14.7956 16.6839 15.5587 16.1213 16.1213C15.5587 16.6839 14.7956 17 14 17H6C5.20435 17 4.44129 16.6839 3.87868 16.1213C3.31607 15.5587 3 14.7956 3 14V6ZM5.5 5C5.36739 5 5.24021 5.05268 5.14645 5.14645C5.05268 5.24021 5 5.36739 5 5.5C5 5.63261 5.05268 5.75979 5.14645 5.85355C5.24021 5.94732 5.36739 6 5.5 6H14.5C14.6326 6 14.7598 5.94732 14.8536 5.85355C14.9473 5.75979 15 5.63261 15 5.5C15 5.36739 14.9473 5.24021 14.8536 5.14645C14.7598 5.05268 14.6326 5 14.5 5H5.5ZM6.5 11C6.89782 11 7.27936 10.842 7.56066 10.5607C7.84196 10.2794 8 9.89782 8 9.5C8 9.10218 7.84196 8.72064 7.56066 8.43934C7.27936 8.15804 6.89782 8 6.5 8C6.10218 8 5.72064 8.15804 5.43934 8.43934C5.15804 8.72064 5 9.10218 5 9.5C5 9.89782 5.15804 10.2794 5.43934 10.5607C5.72064 10.842 6.10218 11 6.5 11ZM8 13.5C8 13.1022 7.84196 12.7206 7.56066 12.4393C7.27936 12.158 6.89782 12 6.5 12C6.10218 12 5.72064 12.158 5.43934 12.4393C5.15804 12.7206 5 13.1022 5 13.5C5 13.8978 5.15804 14.2794 5.43934 14.5607C5.72064 14.842 6.10218 15 6.5 15C6.89782 15 7.27936 14.842 7.56066 14.5607C7.84196 14.2794 8 13.8978 8 13.5ZM9 9.5C9 9.63261 9.05268 9.75979 9.14645 9.85355C9.24021 9.94732 9.36739 10 9.5 10H14.5C14.6326 10 14.7598 9.94732 14.8536 9.85355C14.9473 9.75979 15 9.63261 15 9.5C15 9.36739 14.9473 9.24021 14.8536 9.14645C14.7598 9.05268 14.6326 9 14.5 9H9.5C9.36739 9 9.24021 9.05268 9.14645 9.14645C9.05268 9.24021 9 9.36739 9 9.5ZM9.5 13C9.36739 13 9.24021 13.0527 9.14645 13.1464C9.05268 13.2402 9 13.3674 9 13.5C9 13.6326 9.05268 13.7598 9.14645 13.8536C9.24021 13.9473 9.36739 14 9.5 14H14.5C14.6326 14 14.7598 13.9473 14.8536 13.8536C14.9473 13.7598 15 13.6326 15 13.5C15 13.3674 14.9473 13.2402 14.8536 13.1464C14.7598 13.0527 14.6326 13 14.5 13H9.5Z" fill="currentColor"/>
</svg>
