<svg width="1024" height="1024" viewBox="0 0 1024 1024" fill="currentColor" xmlns="http://www.w3.org/2000/svg">
<path d="M544 864V672H672L512 480L352 672H480V864H320V862.4C314.624 862.72 309.504 864 304 864C240.348 864 179.303 838.714 134.294 793.706C89.2856 748.697 64 687.652 64 624C64 500.864 157.12 400.512 276.608 386.752C287.084 331.987 316.316 282.584 359.277 247.04C402.238 211.496 456.242 192.034 512 192C567.766 192.031 621.779 211.491 664.75 247.034C707.721 282.577 736.966 331.981 747.456 386.752C866.944 400.512 959.936 500.864 959.936 624C959.936 687.652 934.65 748.697 889.642 793.706C844.633 838.714 783.588 864 719.936 864C714.56 864 709.376 862.72 703.936 862.4V864H544Z" fill="currentColor"/>
</svg>
